HIERARCHY
ROOT Pelvis
{
	OFFSET 0.000000 0.000000 0.000000
	CHANNELS 6 Xposition Yposition Zposition Xrotation Yrotation Zrotation
	JOINT LeftUpLeg_virtual
	{
		OFFSET 0.000000 0.000000 0.000000
		CHANNELS 3 Xrotation Yrotation Zrotation
		JOINT LeftUpLeg
		{
			OFFSET 8.479700 -4.795502 -0.379100
			CHANNELS 3 Xrotation Yrotation Zrotation
			JOINT LeftLeg
			{
				OFFSET 0.024144 -32.555107 0.112900
				CHANNELS 3 Xrotation Yrotation Zrotation
				JOINT LeftFoot
				{
					OFFSET -0.024144 -32.638630 -3.012600
					CHANNELS 3 Xrotation Yrotation Zrotation
					JOINT LeftToeBase
					{
						OFFSET 0.970200 -13.225400 11.864200
						CHANNELS 3 Xrotation Yrotation Zrotation
						End Site
						{
							OFFSET 0 0 0
						}
					}
				}
			}
		}
	}
	JOINT RightUpLeg_virtual
	{
		OFFSET 0.000000 0.000000 0.000000
		CHANNELS 3 Xrotation Yrotation Zrotation
		JOINT RightUpLeg
		{
			OFFSET -8.479700 -4.795502 -0.379100
			CHANNELS 3 Xrotation Yrotation Zrotation
			JOINT RightLeg
			{
				OFFSET -0.023144 -32.555092 0.112900
				CHANNELS 3 Xrotation Yrotation Zrotation
				JOINT RightFoot
				{
					OFFSET 0.023144 -32.638641 -3.012700
					CHANNELS 3 Xrotation Yrotation Zrotation
					JOINT RightToeBase
					{
						OFFSET -0.970200 -13.225400 11.864200
						CHANNELS 3 Xrotation Yrotation Zrotation
						End Site
						{
							OFFSET 0 0 0
						}
					}
				}
			}
		}
	}
	JOINT Hips_virtual
	{
		OFFSET 0.000000 0.000000 0.000000
		CHANNELS 3 Xrotation Yrotation Zrotation
		JOINT Hips
		{
			OFFSET -0.000000 -0.000000 -0.000000
			CHANNELS 3 Xrotation Yrotation Zrotation
			JOINT Spine
			{
				OFFSET 0.000000 7.722000 1.166200
				CHANNELS 3 Xrotation Yrotation Zrotation
				JOINT Spine1
				{
					OFFSET 0.000000 12.024101 0.248800
					CHANNELS 3 Xrotation Yrotation Zrotation
					JOINT Spine2
					{
						OFFSET 0.000000 11.502998 -0.491200
						CHANNELS 3 Xrotation Yrotation Zrotation
						JOINT Neck_virtual
						{
							OFFSET 0.000000 0.000000 0.000000
							CHANNELS 3 Xrotation Yrotation Zrotation
							JOINT Neck
							{
								OFFSET 0.000000 18.430702 -3.123100
								CHANNELS 3 Xrotation Yrotation Zrotation
								JOINT Head
								{
									OFFSET 0.000000 9.051102 1.034000
									CHANNELS 3 Xrotation Yrotation Zrotation
									End Site
									{
										OFFSET 0 0 0
									}
								}
							}
						}
						JOINT LeftShoulder_virtual
						{
							OFFSET 0.000000 0.000000 0.000000
							CHANNELS 3 Xrotation Yrotation Zrotation
							JOINT LeftShoulder
							{
								OFFSET 6.197800 13.665199 -4.064700
								CHANNELS 3 Xrotation Yrotation Zrotation
								JOINT LeftArm
								{
									OFFSET 7.778100 -0.187103 -1.709300
									CHANNELS 3 Xrotation Yrotation Zrotation
									JOINT LeftForeArm
									{
										OFFSET 22.049376 0.000000 0.000000
										CHANNELS 3 Xrotation Yrotation Zrotation
										JOINT LeftHand
										{
											OFFSET 23.009392 0.000000 0.000000
											CHANNELS 3 Xrotation Yrotation Zrotation
											End Site
											{
												OFFSET 0 0 0
											}
										}
									}
								}
							}
						}
						JOINT RightShoulder_virtual
						{
							OFFSET 0.000000 0.000000 0.000000
							CHANNELS 3 Xrotation Yrotation Zrotation
							JOINT RightShoulder
							{
								OFFSET -6.197800 13.665199 -4.064700
								CHANNELS 3 Xrotation Yrotation Zrotation
								JOINT RightArm
								{
									OFFSET -7.778100 -0.187103 -1.709300
									CHANNELS 3 Xrotation Yrotation Zrotation
									JOINT RightForeArm
									{
										OFFSET -22.049376 0.000000 0.000000
										CHANNELS 3 Xrotation Yrotation Zrotation
										JOINT RightHand
										{
											OFFSET -23.009392 0.000000 0.000000
											CHANNELS 3 Xrotation Yrotation Zrotation
											End Site
											{
												OFFSET 0 0 0
											}
										}
									}
								}
							}
						}
					}
				}
			}
		}
	}
}
MOTION
Frames: 10
Frame Time: 0.03333333
-0.701957 43.842995 -2.115353 0.000000 0.000000 0.000000 0.665919 -24.268726 9.364825 -79.949632 -8.816407 47.172657 74.584436 6.907230 -5.684028 22.720676 -1.516747 -11.621118 0.000000 0.000000 0.000000 0.665919 -24.268726 9.364825 -23.433443 -6.332976 -17.385581 107.675385 5.105449 -1.119658 24.862727 3.448762 20.846770 0.000000 0.000000 0.000000 0.665919 -24.268726 9.364825 0.000000 0.000001 0.000000 2.861017 -1.282880 -6.004214 2.227984 -1.286566 -3.027762 0.000000 0.000000 0.000000 2.233817 -1.285668 -3.025123 -3.962407 3.288526 2.946571 0.000000 0.000000 0.000000 2.233817 -1.285668 -3.025123 0.452720 1.693818 1.739611 -1.798692 -11.700857 -58.798653 0.000529 -83.306718 0.000575 0.000000 0.000000 0.000000 2.233817 -1.285668 -3.025123 5.136813 17.382609 7.477156 14.034102 22.826736 31.042271 -179.999978 58.256043 179.999978 0.000000 0.000000 0.000000 
-0.709514 43.850990 -2.112463 0.000000 0.000000 0.000000 0.698217 -24.232748 9.370058 -79.951134 -8.861537 47.134698 74.577101 6.934522 -5.729025 22.731669 -1.512508 -11.575002 0.000000 0.000000 0.000000 0.698217 -24.232748 9.370058 -23.523574 -6.362993 -17.378009 107.765420 4.988694 -1.103576 24.773866 3.412998 20.727870 0.000000 0.000000 0.000000 0.698217 -24.232748 9.370058 0.000000 -0.000003 0.000001 2.858181 -1.293458 -6.008479 2.224217 -1.288404 -3.033396 0.000000 0.000000 0.000000 2.230124 -1.286489 -3.030590 -3.922924 3.288501 2.958156 0.000000 0.000000 0.000000 2.230124 -1.286489 -3.030590 0.482385 1.632741 1.765588 -1.851254 -11.677333 -58.833194 0.000023 -83.371201 -0.000011 0.000000 0.000000 0.000000 2.230124 -1.286489 -3.030590 5.151222 17.427062 7.474813 14.053412 22.660440 31.058113 -179.999978 58.187672 179.999978 0.000000 0.000000 0.000000 
-0.717669 43.858810 -2.111980 0.000000 0.000000 0.000000 0.725796 -24.200004 9.374266 -79.943655 -8.907188 47.096763 74.565257 6.965144 -5.773153 22.745978 -1.509555 -11.535178 0.000000 0.000000 0.000000 0.725796 -24.200004 9.374266 -23.601416 -6.396151 -17.369156 107.841905 4.875460 -1.091850 24.692326 3.383620 20.635578 0.000000 0.000000 0.000000 0.725796 -24.200004 9.374266 0.000000 0.000001 -0.000001 2.859848 -1.303659 -6.012730 2.223864 -1.290197 -3.038300 0.000000 0.000000 0.000000 2.230376 -1.288414 -3.035256 -3.886559 3.294389 2.964090 0.000000 0.000000 0.000000 2.230376 -1.288414 -3.035256 0.506471 1.585641 1.768912 -1.905214 -11.648054 -58.840611 0.000336 -83.445931 0.000337 0.000000 0.000000 0.000000 2.230376 -1.288414 -3.035256 5.163595 17.463971 7.466051 14.080610 22.520693 31.066818 -179.999978 58.113367 179.999978 0.000000 0.000000 0.000000 
-0.726693 43.866577 -2.114340 0.000000 0.000000 0.000000 0.749719 -24.175859 9.379558 -79.922721 -8.951593 47.063606 74.549288 6.999144 -5.816834 22.760958 -1.509396 -11.512597 0.000000 0.000000 0.000000 0.749719 -24.175859 9.379558 -23.667886 -6.426680 -17.360606 107.903240 4.770240 -1.084454 24.620257 3.360690 20.569383 0.000000 0.000000 0.000000 0.749719 -24.175859 9.379558 0.000000 0.000001 -0.000001 2.865527 -1.314245 -6.017859 2.225576 -1.291794 -3.043521 0.000000 0.000000 0.000000 2.232486 -1.289749 -3.040205 -3.853553 3.304077 2.962691 0.000000 0.000000 0.000000 2.232486 -1.289749 -3.040205 0.522518 1.557775 1.745666 -1.958939 -11.606914 -58.821534 0.000139 -83.536799 0.000125 0.000000 0.000000 0.000000 2.232486 -1.289749 -3.040205 5.172910 17.491995 7.451952 14.105760 22.416232 31.064096 -179.999937 58.048644 179.999950 0.000000 0.000000 0.000000 
-0.737126 43.874290 -2.119791 0.000000 0.000000 0.000000 0.770850 -24.162851 9.389828 -79.887020 -8.990645 47.036866 74.526537 7.036020 -5.859662 22.777901 -1.512145 -11.506282 0.000000 0.000000 0.000000 0.770850 -24.162851 9.389828 -23.724015 -6.450446 -17.352357 107.949159 4.677490 -1.081966 24.560360 3.344036 20.526704 0.000000 0.000000 0.000000 0.770850 -24.162851 9.389828 -0.000000 0.000001 0.000001 2.873703 -1.325163 -6.024725 2.230088 -1.293046 -3.049933 0.000000 0.000000 0.000000 2.235820 -1.290964 -3.046373 -3.822532 3.316910 2.955110 0.000000 0.000000 0.000000 2.235820 -1.290964 -3.046373 0.530835 1.548095 1.698933 -2.011587 -11.548420 -58.783402 0.000019 -83.644115 -0.000012 0.000000 0.000000 0.000000 2.235820 -1.290964 -3.046373 5.178689 17.514111 7.436940 14.117864 22.346439 31.052130 179.999991 58.006884 179.999991 0.000000 0.000000 0.000000 
-0.749173 43.881813 -2.128107 0.000000 0.000000 0.000000 0.789878 -24.160162 9.405124 -79.838225 -9.023272 47.017960 74.497099 7.073638 -5.901976 22.796139 -1.517933 -11.518037 0.000000 0.000000 0.000000 0.789878 -24.160162 9.405124 -23.771206 -6.465571 -17.344466 107.980598 4.600661 -1.081580 24.514708 3.333002 20.502715 0.000000 0.000000 0.000000 0.789878 -24.160162 9.405124 0.000000 -0.000001 0.000001 2.882584 -1.335831 -6.034007 2.235916 -1.293871 -3.057968 0.000000 0.000000 0.000000 2.241406 -1.292104 -3.054250 -3.792377 3.331052 2.945768 0.000000 0.000000 0.000000 2.241406 -1.292104 -3.054250 0.533457 1.550895 1.639880 -2.062370 -11.470492 -58.740125 -0.000074 -83.761936 -0.000067 0.000000 0.000000 0.000000 2.241406 -1.292104 -3.054250 5.184948 17.530372 7.429134 14.110150 22.303892 31.019236 -179.999991 57.993907 -179.999991 0.000000 0.000000 0.000000 
-0.762866 43.889000 -2.138580 0.000000 0.000000 0.000000 0.807096 -24.164700 9.424263 -79.779116 -9.049996 47.006742 74.461705 7.109927 -5.945117 22.815323 -1.526240 -11.545292 0.000000 0.000000 0.000000 0.807096 -24.164700 9.424263 -23.810540 -6.472696 -17.335548 107.999586 4.541963 -1.082413 24.482890 3.326457 20.491841 0.000000 0.000000 0.000000 0.807096 -24.164700 9.424263 0.000000 0.000001 -0.000001 2.890890 -1.345418 -6.045788 2.242118 -1.294391 -3.067452 0.000000 0.000000 0.000000 2.247328 -1.293199 -3.063674 -3.763390 3.344347 2.940334 0.000000 0.000000 0.000000 2.247328 -1.293199 -3.063674 0.533403 1.559037 1.582766 -2.109734 -11.376567 -58.705838 -0.000308 -83.880221 -0.000308 0.000000 0.000000 0.000000 2.247328 -1.293199 -3.063674 5.188728 17.547033 7.437169 14.085626 22.272082 30.964290 -179.999978 58.006925 179.999978 0.000000 0.000000 0.000000 
-0.777969 43.895576 -2.150227 0.000000 0.000000 0.000000 0.822086 -24.172518 9.445171 -79.713362 -9.072936 47.001998 74.422814 7.143039 -5.990461 22.834951 -1.536064 -11.582625 0.000000 0.000000 0.000000 0.822086 -24.172518 9.445171 -23.842339 -6.474244 -17.324493 108.009162 4.502167 -1.083555 24.461815 3.323070 20.488068 0.000000 0.000000 0.000000 0.822086 -24.172518 9.445171 0.000000 -0.000001 0.000000 2.898254 -1.353087 -6.059458 2.248161 -1.294707 -3.077664 0.000000 0.000000 0.000000 2.253087 -1.294212 -3.073917 -3.737156 3.355084 2.942747 0.000000 0.000000 0.000000 2.253087 -1.294212 -3.073917 0.532704 1.566416 1.538224 -2.151673 -11.275746 -58.687909 -0.000134 -83.988487 -0.000110 0.000000 0.000000 0.000000 2.253087 -1.294212 -3.073917 5.192397 17.565522 7.464874 14.049308 22.242421 30.884855 179.999991 58.037279 180.000005 0.000000 0.000000 0.000000 
-0.794017 43.901367 -2.162006 0.000000 0.000000 0.000000 0.833655 -24.180130 9.465689 -79.643694 -9.093669 47.001749 74.382454 7.172033 -6.038405 22.854662 -1.546337 -11.623981 0.000000 0.000000 0.000000 0.833655 -24.180130 9.465689 -23.866119 -6.473289 -17.311164 108.011922 4.480409 -1.084086 24.447641 3.320172 20.485959 0.000000 0.000000 0.000000 0.833655 -24.180130 9.465689 0.000000 0.000001 0.000000 2.905152 -1.356639 -6.073744 2.254015 -1.294916 -3.087605 0.000000 0.000000 0.000000 2.258684 -1.295230 -3.083954 -3.715552 3.362795 2.953031 0.000000 0.000000 0.000000 2.258684 -1.295230 -3.083954 0.533448 1.569944 1.508527 -2.186855 -11.180677 -58.684405 0.000260 -84.079171 0.000252 0.000000 0.000000 0.000000 2.258684 -1.295230 -3.083954 5.196405 17.586093 7.510234 14.008890 22.211270 30.786863 -179.999978 58.074325 179.999978 0.000000 0.000000 0.000000 
-0.810512 43.906174 -2.173113 0.000000 0.000000 0.000000 0.840209 -24.185314 9.484142 -79.572428 -9.113413 47.003542 74.342907 7.196658 -6.087729 22.874140 -1.556151 -11.664660 0.000000 0.000000 0.000000 0.840209 -24.185314 9.484142 -23.881024 -6.472581 -17.296062 108.010392 4.474544 -1.084221 24.436132 3.317042 20.482119 0.000000 0.000000 0.000000 0.840209 -24.185314 9.484142 -0.000000 0.000001 0.000001 2.912230 -1.358297 -6.087005 2.259929 -1.295120 -3.096258 0.000000 0.000000 0.000000 2.264343 -1.296225 -3.092742 -3.699527 3.368429 2.966793 0.000000 0.000000 0.000000 2.264343 -1.296225 -3.092742 0.535859 1.568546 1.487447 -2.215492 -11.101079 -58.686488 0.000028 -84.149508 0.000013 0.000000 0.000000 0.000000 2.264343 -1.296225 -3.092742 5.200600 17.606944 7.565129 13.970918 22.181651 30.682873 -179.999978 58.110054 179.999964 0.000000 0.000000 0.000000 
